<svg version="1.1" id="Layer_1" xmlns="http://www.w3.org/2000/svg" xmlns:xlink="http://www.w3.org/1999/xlink" x="0px" y="0px"
	 width="100%" viewBox="0 0 505 511" enable-background="new 0 0 505 511" xml:space="preserve">
<path fill="#FFFEFD" opacity="1.000000" stroke="none" 
	d="
M1.000000,252.000000 
	C1.000000,168.020523 1.000000,84.541039 1.000000,1.030780 
	C169.271439,1.030780 337.542877,1.030780 505.907166,1.030780 
	C505.907166,171.229538 505.907166,341.459137 505.907166,511.844360 
	C337.666779,511.844360 169.333405,511.844360 1.000000,511.844360 
	C1.000000,425.456970 1.000000,338.978485 1.000000,252.000000 
M348.804901,326.276062 
	C350.424255,323.642731 352.043610,321.009399 353.996857,317.833069 
	C358.948059,321.276520 361.990356,317.994446 365.205475,313.366364 
	C366.451477,312.166077 368.582611,311.094940 368.780060,309.741669 
	C369.411957,305.411072 370.447388,300.653381 369.293396,296.646210 
	C366.632080,287.405182 363.750641,278.337646 359.325867,269.443604 
	C354.369263,259.480469 349.745789,250.501099 339.917053,244.974274 
	C338.020599,243.907867 335.863617,242.593628 333.837708,242.611710 
	C329.157898,242.653488 325.116272,242.175491 321.836670,238.194046 
	C320.652557,236.756577 318.036194,236.498932 315.964050,235.101364 
	C315.881622,234.702881 315.799194,234.304382 316.115051,233.680130 
	C316.070343,233.135361 316.025635,232.590591 316.136871,231.533737 
	C316.218781,231.186737 316.300720,230.839722 317.021088,230.241669 
	C323.800140,225.435425 324.761292,222.060181 321.445099,213.759064 
	C323.615814,205.020203 325.782074,196.280228 327.977356,187.547531 
	C328.047577,187.268250 328.415497,187.063538 328.645264,186.824646 
	C333.610107,181.661911 334.000854,175.173355 331.878662,169.180847 
	C330.771637,166.054993 326.272675,161.818909 323.698059,162.072174 
	C319.942749,162.441559 315.200104,165.680359 313.384766,169.047287 
	C311.739471,172.098740 313.449310,176.959183 313.388824,181.679581 
	C312.533569,182.372955 311.678314,183.066345 310.442413,184.274506 
	C310.404449,184.908829 310.366486,185.543152 309.933380,186.525574 
	C309.944519,187.018051 309.955688,187.510529 309.599762,188.774689 
	C309.509979,189.909103 309.420227,191.043503 308.932526,192.522675 
	C308.937256,193.016266 308.941956,193.509857 308.551941,194.763687 
	C308.483154,195.901199 308.414368,197.038712 307.997406,198.402542 
	C308.019867,198.895096 308.042358,199.387650 307.810059,200.641144 
	C307.733704,202.495560 307.657349,204.349991 306.885620,206.491211 
	C300.817871,207.932083 299.934296,212.977371 298.159729,218.069901 
	C297.454224,219.743515 296.505646,221.359894 296.095215,223.102997 
	C295.308624,226.443878 295.160675,229.961136 294.140656,233.214905 
	C292.666290,237.917984 290.350067,242.361603 288.940460,247.079483 
	C286.948456,253.746811 283.535278,258.564575 276.387421,260.475159 
	C271.158173,261.872864 266.144440,264.076843 260.207550,265.837189 
	C257.958252,266.302795 255.708969,266.768402 252.607712,267.060516 
	C252.322296,267.010193 252.036896,266.959839 251.899231,266.184479 
	C252.908554,263.775085 253.917877,261.365723 255.393936,258.574310 
	C255.705338,257.842896 256.016754,257.111511 256.870972,255.923218 
	C257.239990,250.931198 257.609009,245.939194 258.568909,240.344116 
	C261.421234,244.684326 264.273590,249.024521 267.752106,254.317551 
	C268.623871,253.795868 270.731934,252.793198 272.541046,251.401855 
	C277.426605,247.644531 279.090515,242.160400 280.616608,236.459778 
	C281.693634,232.436493 283.792450,228.695099 285.266541,224.764664 
	C285.709839,223.582687 285.587097,222.188446 285.990723,220.271774 
	C286.703674,218.905609 287.416656,217.539429 288.829651,215.998337 
	C292.716583,212.135025 289.759277,208.524353 287.997437,205.256012 
	C287.248749,203.867203 284.620087,202.628769 282.940643,202.740997 
	C269.160980,203.661758 257.678192,214.279419 255.301285,227.813248 
	C255.048676,229.251602 254.382675,230.617340 253.242081,231.908478 
	C247.423004,225.796387 240.498627,221.601349 232.261597,219.555908 
	C226.790268,218.197266 223.539429,219.612000 221.070770,224.775726 
	C220.362244,226.257782 219.743088,227.782562 218.913834,228.318619 
	C218.730957,226.543915 218.548096,224.769211 218.314316,222.500488 
	C215.180038,222.500488 212.368210,222.310043 209.589783,222.534073 
	C198.667007,223.414841 187.719208,224.136353 176.848480,225.469666 
	C165.753632,226.830490 156.416367,232.097763 150.350464,241.499237 
	C143.805176,251.643753 134.097763,258.001373 124.993187,265.207153 
	C122.227249,267.396240 116.974953,266.889313 117.084015,272.296478 
	C117.164360,276.279602 116.995392,280.285278 117.378281,284.238251 
	C117.614441,286.676361 118.506691,289.101379 119.409256,291.413208 
	C120.910316,295.258057 122.994690,298.900116 124.235008,302.817078 
	C127.743332,313.896484 130.952454,325.070770 134.269653,336.210571 
	C135.164032,339.214142 135.504456,342.516663 136.989288,345.187042 
	C143.264511,356.472626 150.352722,367.330811 156.157806,378.842438 
	C158.959015,384.397339 163.894882,386.035736 168.360031,387.030151 
	C178.856812,389.367859 189.054947,386.498749 197.365356,379.876770 
	C206.687500,372.448700 217.453156,369.026642 228.586472,366.348236 
	C234.466507,364.933624 240.369125,365.554169 245.784500,360.811432 
	C250.716599,356.491943 255.543594,352.904114 256.120911,346.029633 
	C257.064362,334.795441 257.765228,323.540894 258.699554,312.249847 
	C258.699554,312.249847 258.794067,312.149841 259.549927,312.073517 
	C260.495087,313.004120 261.555939,313.844971 262.361725,314.883728 
	C264.123108,317.154297 265.754913,319.525421 267.395721,322.625824 
	C268.686279,324.738586 269.976868,326.851318 270.583344,327.844208 
	C271.469788,332.695007 272.170654,336.530212 272.990143,341.006622 
	C279.594788,347.665924 287.752869,350.890625 297.763428,351.958862 
	C307.155762,353.643219 315.333771,351.637390 321.520935,343.933441 
	C325.142059,339.424591 329.495026,337.810150 335.815826,340.229492 
	C336.701294,339.665405 338.122131,339.275726 338.373230,338.504974 
	C339.170135,336.058655 339.530701,333.470184 340.879730,330.895050 
	C341.872192,334.014038 342.864624,337.133057 344.005310,340.717926 
	C346.188965,338.937958 348.643890,337.320099 350.616364,335.243866 
	C354.009308,331.672485 353.450104,329.524902 348.804901,326.276062 
M408.876923,286.206238 
	C414.008148,284.565002 419.170166,283.009979 424.239929,281.196930 
	C425.075531,280.898102 426.016449,279.482056 426.041840,278.558533 
	C426.204376,272.648529 426.124725,266.731873 426.124725,260.900696 
	C412.973999,259.217163 412.449982,259.722839 405.946289,270.325043 
	C403.753265,273.900085 400.106995,276.583710 396.427307,279.519012 
	C391.288544,281.433411 386.129120,283.295593 381.029663,285.309540 
	C380.091980,285.679932 378.794281,286.587372 378.690918,287.380890 
	C378.119232,291.768188 377.865936,296.196960 377.382294,302.089020 
	C380.970245,299.503937 383.583069,297.339935 386.464996,295.629272 
	C389.019501,294.112915 391.860779,293.072327 394.597534,291.872101 
	C399.059235,289.915405 403.538879,287.999664 408.876923,286.206238 
M88.564217,220.233200 
	C89.463341,216.871674 90.330833,213.501282 91.268219,210.150452 
	C93.209312,203.211639 93.304527,196.388214 89.965958,189.810379 
	C89.388489,188.672607 88.388649,186.765518 87.708214,186.818253 
	C81.883911,187.269501 75.935341,187.550339 70.375549,189.124222 
	C68.667252,189.607803 66.970177,193.995468 67.119690,196.484161 
	C67.662239,205.515381 71.818985,213.319916 77.245491,220.386322 
	C78.247108,221.690659 80.274651,222.207153 81.982841,223.826645 
	C84.545357,232.063629 88.655266,239.250824 95.619858,244.645767 
	C96.639069,245.435272 97.177368,247.044189 97.591087,248.381348 
	C99.127815,253.347992 103.991653,257.660370 108.024658,257.598511 
	C111.587112,251.353653 110.366791,246.353470 105.152100,241.364090 
	C101.777611,238.135391 100.012817,233.289474 97.030670,229.565475 
	C94.518486,226.428314 91.290947,223.863983 88.564217,220.233200 
M104.273857,146.732224 
	C106.710800,152.480392 109.147751,158.228546 111.628777,164.753937 
	C113.432770,169.496613 115.103020,174.295883 117.078491,178.966019 
	C119.042542,183.609146 122.757614,184.509140 127.796852,182.999466 
	C127.918129,180.694000 128.045471,178.273178 128.428299,175.061493 
	C128.407791,170.156006 129.067444,165.075638 124.296127,161.559189 
	C123.784378,161.182037 123.661743,159.742401 123.901840,158.962967 
	C126.104813,151.811493 124.380478,144.977219 122.550255,137.438873 
	C120.106033,131.671265 118.728645,125.014557 111.434959,124.114403 
	C109.551170,125.459251 107.747887,126.120415 105.903259,126.269264 
	C104.364662,126.393433 101.859093,125.230331 101.398689,125.846161 
	C100.364876,127.228958 99.662949,129.509735 100.023697,131.163681 
	C101.115028,136.167160 102.777138,141.046112 104.273857,146.732224 
M360.751770,240.862381 
	C360.037964,246.815216 361.779144,252.247665 365.612335,256.545837 
	C367.245880,258.377563 370.640106,259.061462 373.323578,259.312897 
	C374.306061,259.404938 375.628693,256.794403 376.652283,255.317078 
	C378.477539,252.682846 379.975677,249.793259 382.003448,247.334381 
	C385.475861,243.123627 389.280670,239.188614 392.890869,235.089325 
	C396.695374,230.769363 399.943726,225.782227 404.354980,222.228531 
	C408.067169,219.238022 408.920288,216.063309 408.662079,211.902893 
	C407.934052,200.172638 406.094330,198.571320 394.686005,199.255783 
	C391.863739,199.425125 390.604523,200.216141 389.535919,203.199417 
	C387.977600,207.549957 385.175964,211.488007 382.677490,215.459152 
	C380.447327,219.003830 377.909424,222.354858 374.872101,225.940216 
	C370.186920,229.903183 365.478455,233.839569 360.862122,237.881119 
	C360.504974,238.193817 360.794678,239.245392 360.751770,240.862381 
M362.674042,84.932396 
	C373.897461,87.792831 385.671417,88.968002 395.753326,95.325569 
	C397.329224,96.319321 398.188446,98.449600 399.379059,100.054352 
	C399.094513,100.408279 398.809937,100.762207 398.525391,101.116127 
	C402.960388,102.347473 407.395386,103.578819 411.821930,104.807816 
	C411.904175,96.840378 376.389862,79.828407 357.093475,78.972992 
	C347.649811,78.625191 338.189117,77.747787 328.766296,78.049950 
	C313.468536,78.540512 299.021454,82.633873 285.867065,90.679482 
	C281.262085,93.496025 276.820221,96.579285 272.984802,99.094254 
	C270.019287,91.211578 267.133911,83.541870 264.164337,75.158379 
	C258.436066,64.467270 249.924652,56.774433 239.012283,51.654659 
	C240.980774,54.511852 243.519196,56.775032 245.897400,59.195606 
	C252.554886,65.971649 256.528198,74.339325 259.873566,83.914375 
	C260.369476,88.365417 261.273010,92.817535 261.261230,97.267242 
	C261.245422,103.236908 260.461853,109.201279 260.121643,115.174400 
	C259.859619,119.774033 263.977936,120.197250 266.806885,121.212250 
	C268.152618,121.695099 271.037598,120.573402 271.909393,119.286865 
	C283.991119,101.457329 301.190796,91.050873 321.783447,87.259972 
	C334.862976,84.852165 348.499695,85.471367 362.674042,84.932396 
M369.689026,170.890976 
	C370.895172,170.234070 372.042297,169.211166 373.321136,169.004883 
	C375.307007,168.684586 377.382568,168.920273 379.420105,168.920273 
	C379.598846,168.257477 379.777618,167.594696 379.956360,166.931900 
	C377.735809,165.900162 375.358429,163.761276 373.324768,164.049255 
	C367.760986,164.837204 363.338379,171.023346 362.486176,177.347412 
	C361.818298,179.765518 361.131287,182.178543 360.488220,184.603226 
	C359.919647,186.747040 360.093842,190.031998 358.741272,190.863831 
	C352.118866,194.936661 351.296509,201.661224 350.441193,208.114807 
	C349.980499,211.590515 348.901062,213.671265 345.810394,214.874908 
	C337.746704,218.015228 335.482452,224.544449 335.516327,232.436264 
	C335.535553,236.914383 342.389374,242.416672 346.267151,241.041031 
	C352.009949,239.003784 356.619995,232.741852 355.911560,226.752518 
	C355.462616,222.957001 357.348999,221.261703 359.600555,218.857300 
	C363.388092,214.812744 366.554596,210.155762 369.733978,205.583694 
	C371.745941,202.690384 372.976868,199.223648 375.141449,196.473221 
	C379.312256,191.173584 382.292206,185.591324 381.094818,178.648788 
	C379.851654,171.440933 376.859863,169.598450 369.689026,170.890976 
M217.258072,140.023193 
	C217.228912,139.462326 217.199753,138.901459 217.736145,137.948273 
	C219.045731,134.636307 221.502411,131.303696 221.443207,128.016373 
	C221.285080,119.231270 219.904572,110.658981 213.923904,103.333954 
	C210.319092,98.918869 208.962662,98.674339 205.133972,103.159393 
	C202.324173,106.450882 198.703842,109.039047 195.599792,112.097977 
	C194.708405,112.976402 193.798553,114.428268 193.852966,115.571716 
	C194.088654,120.524979 194.235046,125.559303 195.297745,130.368866 
	C195.984772,133.478088 198.201447,136.249344 199.804504,139.866821 
	C199.940994,140.310165 200.077469,140.753510 199.889908,141.561966 
	C200.058029,142.289337 200.226151,143.016708 200.274658,144.609467 
	C199.850449,153.730453 202.520508,162.196091 205.183899,170.927292 
	C200.891678,176.103546 200.844849,182.211777 201.936981,188.283218 
	C202.267334,190.119675 204.514191,191.611374 206.130707,193.672180 
	C206.374176,193.898285 206.660934,194.030411 207.283173,194.660538 
	C209.303085,196.122696 211.187241,197.872864 213.403824,198.917847 
	C214.416565,199.395309 216.706070,198.961990 217.353287,198.122253 
	C221.206802,193.122559 223.618134,187.530579 222.700607,180.989258 
	C221.853119,174.947235 220.963684,168.911118 220.272110,162.151535 
	C220.259567,160.470398 220.247025,158.789261 220.556915,156.277100 
	C219.417557,151.042664 218.278214,145.808212 217.258072,140.023193 
M71.279938,329.592987 
	C75.492920,335.784271 79.510986,342.119232 83.951126,348.143066 
	C109.222046,382.427582 140.091003,411.276154 172.295212,438.819244 
	C189.748886,453.746735 207.131790,468.757172 224.623871,483.639374 
	C227.808426,486.348785 231.366501,488.619171 234.752136,491.092194 
	C235.162445,490.609283 235.572754,490.126343 235.983063,489.643402 
	C232.707413,486.254486 229.683411,482.570801 226.115326,479.524414 
	C202.818085,459.633484 179.363449,439.926697 156.100494,419.996063 
	C154.215744,418.381317 153.380066,415.542114 151.996918,413.168945 
	C150.664566,412.754913 147.870239,412.750397 146.582809,411.355316 
	C130.561874,393.994354 114.273216,376.840363 99.083504,358.767365 
	C89.923187,347.868256 82.558701,335.459869 74.182838,323.042114 
	C62.235325,302.201935 52.127487,280.562256 45.712086,257.327820 
	C36.425068,223.693359 31.823997,189.591858 36.913025,154.785706 
	C42.000767,119.988342 58.666706,91.682755 86.123550,69.669792 
	C98.746605,59.549522 113.302414,53.074425 128.766907,46.834721 
	C162.170471,36.844475 195.650391,35.350159 229.315506,45.912365 
	C202.581146,31.901875 174.331573,29.355261 144.245392,34.187603 
	C123.233177,37.812145 103.391464,44.542747 85.568329,56.516586 
	C48.641197,81.324776 28.241976,115.984352 25.281178,160.307358 
	C23.423763,188.112747 25.910336,215.710037 32.963482,242.816864 
	C40.980610,273.628479 53.408287,302.440216 71.279938,329.592987 
M270.158478,439.113861 
	C266.777985,439.790771 263.397461,440.467651 259.556519,441.236755 
	C265.750824,447.990082 272.200439,448.975586 282.044647,445.151917 
	C290.231506,441.930267 298.697968,439.274902 306.559052,435.393494 
	C351.759033,413.076233 389.887054,381.796570 421.687439,342.828613 
	C437.580170,323.353729 450.141479,301.882904 458.229767,277.911957 
	C466.513916,253.360474 467.686829,228.041687 466.718048,202.497955 
	C465.638489,174.033249 456.467529,148.411377 438.395660,126.303947 
	C432.836792,119.503746 426.232849,113.549988 419.979218,107.337753 
	C419.356812,106.719437 417.837463,107.004028 416.734406,106.869560 
	C417.020203,107.839455 417.132111,108.915520 417.641052,109.749153 
	C418.143402,110.571907 419.043915,111.153198 419.775726,111.833984 
	C436.380981,127.282295 446.387604,146.572510 452.007233,168.230774 
	C457.110596,187.899399 457.840607,207.904465 456.212891,228.151428 
	C454.617920,247.991379 451.086121,267.407471 442.855988,285.481842 
	C428.537506,316.926880 407.824066,343.977020 382.791504,367.660980 
	C350.095612,398.595398 314.189880,424.629761 270.158478,439.113861 
M162.964142,150.596436 
	C162.232147,145.985443 161.752350,141.315536 160.693024,136.781021 
	C159.746643,132.730072 158.164581,128.827271 156.855774,124.861488 
	C154.963730,119.128433 154.191742,112.576950 150.806808,107.929825 
	C148.180435,104.324112 145.022919,101.256172 144.230988,96.747368 
	C143.274033,91.298965 139.184464,93.121140 136.016418,92.971237 
	C132.578140,92.808548 131.593201,95.194450 131.186935,98.111130 
	C129.371292,111.146019 134.072617,122.587944 139.904007,133.728821 
	C141.297516,136.391159 143.286713,138.745529 144.639297,141.424606 
	C146.710831,145.527786 148.313034,149.869080 150.408997,153.958359 
	C151.969421,157.002747 154.139893,159.565689 158.221725,158.747467 
	C162.333420,157.923264 162.140045,154.371780 162.964142,150.596436 
M155.031998,186.261780 
	C155.151031,191.206863 156.873810,195.613663 161.035126,198.241150 
	C162.877243,199.404266 166.805374,199.978149 168.093033,198.863358 
	C176.309357,191.750107 179.568573,183.129883 171.418915,173.281387 
	C168.161453,169.344894 163.933716,169.324356 159.996460,172.507141 
	C155.803009,175.897018 154.613083,180.291733 155.031998,186.261780 
M140.751328,199.822052 
	C136.200485,197.048599 126.595039,196.254684 125.554794,199.380585 
	C124.398460,202.855362 125.867226,207.485580 127.007874,211.373749 
	C128.539673,216.595200 133.497467,216.562332 137.365952,215.627106 
	C139.516068,215.107330 141.930847,211.857010 142.457581,209.450211 
	C143.067001,206.665771 141.732468,203.455887 140.751328,199.822052 
M233.335144,49.173409 
	C234.667206,49.857708 235.999283,50.542011 237.331345,51.226315 
	C237.533600,50.602131 237.735870,49.977943 237.938126,49.353760 
	C236.412506,49.011681 234.886887,48.669605 233.335144,49.173409 
z"/>
<path fill="#FDE607" opacity="1.000000" stroke="none" 
	d="
M258.568420,312.294922 
	C257.765228,323.540894 257.064362,334.795441 256.120911,346.029633 
	C255.543594,352.904114 250.716599,356.491943 245.784500,360.811432 
	C240.369125,365.554169 234.466507,364.933624 228.586472,366.348236 
	C217.453156,369.026642 206.687500,372.448700 197.365356,379.876770 
	C189.054947,386.498749 178.856812,389.367859 168.360031,387.030151 
	C163.894882,386.035736 158.959015,384.397339 156.157806,378.842438 
	C150.352722,367.330811 143.264511,356.472626 136.989288,345.187042 
	C135.504456,342.516663 135.164032,339.214142 134.269653,336.210571 
	C130.952454,325.070770 127.743332,313.896484 124.235008,302.817078 
	C122.994690,298.900116 120.910316,295.258057 119.409256,291.413208 
	C118.506691,289.101379 117.614441,286.676361 117.378281,284.238251 
	C116.995392,280.285278 117.164360,276.279602 117.084015,272.296478 
	C116.974953,266.889313 122.227249,267.396240 124.993187,265.207153 
	C134.097763,258.001373 143.805176,251.643753 150.350464,241.499237 
	C156.416367,232.097763 165.753632,226.830490 176.848480,225.469666 
	C187.719208,224.136353 198.667007,223.414841 209.589783,222.534073 
	C212.368210,222.310043 215.180038,222.500488 218.314316,222.500488 
	C218.548096,224.769211 218.730957,226.543915 219.019608,229.068787 
	C219.118088,231.206329 219.110779,232.593704 219.016815,234.500366 
	C218.715866,239.837067 218.467056,244.653275 218.297180,249.472260 
	C218.134323,254.092194 211.539902,256.973633 214.619263,262.599548 
	C215.284927,262.599548 215.792068,262.703308 216.239761,262.584015 
	C223.155212,260.741180 223.951981,261.418091 223.836594,268.709137 
	C223.803024,270.829956 223.324203,274.058472 224.444275,274.881805 
	C228.405609,277.793823 227.227539,281.633942 227.374695,285.289948 
	C227.459320,287.392426 227.390030,289.501038 227.390030,292.287079 
	C231.403366,291.609406 234.777573,290.851532 238.193588,290.500336 
	C246.374603,289.659149 254.918579,287.723206 260.552429,296.780914 
	C260.484406,297.816589 260.453552,298.514221 260.111877,299.402527 
	C259.457947,302.017792 259.114868,304.442474 258.599609,307.326904 
	C258.427399,308.438965 258.427368,309.091278 258.218994,309.824951 
	C258.196564,310.702484 258.382507,311.498718 258.568420,312.294922 
M184.738419,324.083862 
	C188.812347,323.527252 191.897842,321.805298 193.178986,317.530518 
	C193.448090,316.632629 194.728531,315.357635 195.481644,315.398071 
	C199.634323,315.621063 199.240479,312.592468 199.687393,310.058258 
	C201.957687,297.184631 201.551956,283.857880 206.260437,271.387634 
	C206.687042,270.257812 206.494186,268.894104 206.634338,267.039215 
	C199.863434,269.514099 193.121475,270.894501 187.667679,274.323639 
	C183.495911,276.946716 179.644302,276.868713 175.444580,276.918854 
	C167.354446,277.015533 167.367828,276.951324 165.128311,284.432922 
	C164.652252,286.023346 164.011047,287.563568 163.480148,289.138458 
	C160.643951,297.552002 164.109726,309.797150 170.916077,314.815033 
	C175.184387,317.961761 179.638092,320.856995 184.738419,324.083862 
z"/>
<path fill="#0299FE" opacity="1.000000" stroke="none" 
	d="
M316.382690,230.492722 
	C316.300720,230.839722 316.218781,231.186737 315.844269,231.904816 
	C315.606720,232.819214 315.661743,233.362564 315.716797,233.905899 
	C315.799194,234.304382 315.881622,234.702881 316.018250,235.769562 
	C319.510803,242.272171 324.132690,245.846069 331.199158,247.142563 
	C339.244720,248.618698 347.563080,250.715805 349.655731,260.924835 
	C350.203247,263.595917 351.633240,266.384369 353.429413,268.447144 
	C359.643433,275.583588 362.202515,284.209930 364.654572,293.036743 
	C366.538544,299.818726 367.473419,305.966492 359.624390,310.049286 
	C356.790985,311.097565 354.105530,311.768433 351.914185,313.197205 
	C350.296661,314.251862 348.808746,316.119476 348.188019,317.940216 
	C347.325409,320.470642 347.328339,323.296112 346.616943,326.047668 
	C344.141449,327.374420 342.009735,328.648804 339.482208,329.898651 
	C336.334137,329.776825 333.161926,328.751892 330.914368,329.769409 
	C325.751373,332.106812 320.457214,334.780151 316.252594,338.491211 
	C303.707031,349.564056 283.501587,344.863525 278.201050,329.136932 
	C276.373566,323.714783 273.330475,319.458740 268.083069,316.527100 
	C266.842285,313.105408 265.646423,310.051727 264.390869,306.845673 
	C271.712036,305.129730 272.509247,303.043884 269.136322,297.249573 
	C268.717682,296.530365 268.357391,295.777252 267.992981,294.586090 
	C270.462555,284.349945 263.163788,279.806549 256.100952,274.840912 
	C258.151520,273.759399 258.949921,273.137604 259.850464,272.895020 
	C267.322906,270.881897 274.760559,268.694031 282.313690,267.037598 
	C291.411987,265.042297 294.462097,261.787842 295.073944,252.756134 
	C295.214783,250.677200 295.683563,248.388000 296.741272,246.644379 
	C301.040619,239.557022 302.327057,231.957443 302.161407,223.770493 
	C302.104462,220.955338 304.228333,218.135147 305.145599,215.250381 
	C306.090881,212.277512 306.779877,209.223129 307.580994,206.204407 
	C307.657349,204.349991 307.733704,202.495560 308.144806,200.170135 
	C308.434906,199.191498 308.390259,198.683868 308.345642,198.176224 
	C308.414368,197.038712 308.483154,195.901199 308.935242,194.304840 
	C309.322540,193.289978 309.326508,192.733948 309.330475,192.177917 
	C309.420227,191.043503 309.509979,189.909103 309.966980,188.307434 
	C310.332306,187.285934 310.330414,186.731705 310.328491,186.177475 
	C310.366486,185.543152 310.404449,184.908829 311.006927,184.075317 
	C312.654816,183.512924 313.738190,183.149704 314.821533,182.786499 
	C314.440979,182.198364 314.060425,181.610199 313.679871,181.022034 
	C313.449310,176.959183 311.739471,172.098740 313.384766,169.047287 
	C315.200104,165.680359 319.942749,162.441559 323.698059,162.072174 
	C326.272675,161.818909 330.771637,166.054993 331.878662,169.180847 
	C334.000854,175.173355 333.610107,181.661911 328.645264,186.824646 
	C328.415497,187.063538 328.047577,187.268250 327.977356,187.547531 
	C325.782074,196.280228 323.615814,205.020203 321.224121,214.505402 
	C319.462982,220.332077 317.922821,225.412399 316.382690,230.492722 
z"/>
<path fill="#E74043" opacity="1.000000" stroke="none" 
	d="
M270.970215,439.163513 
	C314.189880,424.629761 350.095612,398.595398 382.791504,367.660980 
	C407.824066,343.977020 428.537506,316.926880 442.855988,285.481842 
	C451.086121,267.407471 454.617920,247.991379 456.212891,228.151428 
	C457.840607,207.904465 457.110596,187.899399 452.007233,168.230774 
	C446.387604,146.572510 436.380981,127.282295 419.775726,111.833984 
	C419.043915,111.153198 418.143402,110.571907 417.641052,109.749153 
	C417.132111,108.915520 417.020203,107.839455 416.734406,106.869560 
	C417.837463,107.004028 419.356812,106.719437 419.979218,107.337753 
	C426.232849,113.549988 432.836792,119.503746 438.395660,126.303947 
	C456.467529,148.411377 465.638489,174.033249 466.718048,202.497955 
	C467.686829,228.041687 466.513916,253.360474 458.229767,277.911957 
	C450.141479,301.882904 437.580170,323.353729 421.687439,342.828613 
	C389.887054,381.796570 351.759033,413.076233 306.559052,435.393494 
	C298.697968,439.274902 290.231506,441.930267 281.217224,445.097717 
	C277.462250,444.627930 274.534668,444.212341 271.311127,443.754730 
	C271.185364,442.060883 271.077789,440.612213 270.970215,439.163513 
z"/>
<path fill="#E93F43" opacity="1.000000" stroke="none" 
	d="
M127.990456,46.789406 
	C113.302414,53.074425 98.746605,59.549522 86.123550,69.669792 
	C58.666706,91.682755 42.000767,119.988342 36.913025,154.785706 
	C31.823997,189.591858 36.425068,223.693359 45.712086,257.327820 
	C52.127487,280.562256 62.235325,302.201935 73.977432,323.575439 
	C72.899574,325.710693 72.027130,327.312653 71.154678,328.914612 
	C53.408287,302.440216 40.980610,273.628479 32.963482,242.816864 
	C25.910336,215.710037 23.423763,188.112747 25.281178,160.307358 
	C28.241976,115.984352 48.641197,81.324776 85.568329,56.516586 
	C103.391464,44.542747 123.233177,37.812145 144.944214,34.453289 
	C148.922180,35.322449 152.201324,35.925922 155.480453,36.529400 
	C149.928543,38.671211 144.253677,39.442215 138.878967,41.155090 
	C135.040756,42.378296 131.605515,44.865963 127.990456,46.789406 
z"/>
<path fill="#3566F5" opacity="1.000000" stroke="none" 
	d="
M205.766510,170.539749 
	C202.520508,162.196091 199.850449,153.730453 200.508850,144.000046 
	C200.566681,142.659363 200.390320,141.928116 200.213959,141.196854 
	C200.077469,140.753510 199.940994,140.310165 200.123444,139.441513 
	C200.239090,136.676132 200.427719,134.218811 199.768463,132.015152 
	C195.728043,118.509399 199.536407,110.165474 212.680725,105.209793 
	C216.253967,113.963333 219.199127,122.744431 217.696609,132.459045 
	C217.396378,134.400238 217.339630,136.379105 217.170609,138.340591 
	C217.199753,138.901459 217.228912,139.462326 217.136017,140.789200 
	C217.026413,146.959229 216.270142,152.522415 220.234467,157.108124 
	C220.247025,158.789261 220.259567,160.470398 219.843262,162.697525 
	C218.600983,165.097412 217.132278,166.945023 217.114410,168.806564 
	C217.080170,172.372620 217.651199,175.990646 218.358810,179.509125 
	C220.628357,190.794250 218.306610,193.850815 206.991013,194.068573 
	C206.660934,194.030411 206.374176,193.898285 206.046860,192.978943 
	C205.897507,185.037048 205.832001,177.788391 205.766510,170.539749 
z"/>
<path fill="#F012C7" opacity="1.000000" stroke="none" 
	d="
M370.099915,171.503159 
	C376.859863,169.598450 379.851654,171.440933 381.094818,178.648788 
	C382.292206,185.591324 379.312256,191.173584 375.141449,196.473221 
	C372.976868,199.223648 371.745941,202.690384 369.733978,205.583694 
	C366.554596,210.155762 363.388092,214.812744 359.600555,218.857300 
	C357.348999,221.261703 355.462616,222.957001 355.911560,226.752518 
	C356.619995,232.741852 352.009949,239.003784 346.267151,241.041031 
	C342.389374,242.416672 335.535553,236.914383 335.516327,232.436264 
	C335.482452,224.544449 337.746704,218.015228 345.810394,214.874908 
	C348.901062,213.671265 349.980499,211.590515 350.441193,208.114807 
	C351.296509,201.661224 352.118866,194.936661 358.741272,190.863831 
	C360.093842,190.031998 359.919647,186.747040 360.488220,184.603226 
	C361.131287,182.178543 361.818298,179.765518 363.132568,177.140076 
	C365.885956,175.122894 367.992950,173.313034 370.099915,171.503159 
z"/>
<path fill="#EA4143" opacity="1.000000" stroke="none" 
	d="
M264.248566,75.872169 
	C267.133911,83.541870 270.019287,91.211578 272.984802,99.094254 
	C276.820221,96.579285 281.262085,93.496025 285.867065,90.679482 
	C299.021454,82.633873 313.468536,78.540512 328.766296,78.049950 
	C338.189117,77.747787 347.649811,78.625191 357.413696,79.240051 
	C357.524170,79.748482 357.266907,79.917664 356.499298,80.012199 
	C351.461945,80.009750 346.887451,80.009750 342.312958,80.009750 
	C342.315277,80.383553 342.317596,80.757362 342.319916,81.131165 
	C347.238953,81.362862 352.157959,81.594559 357.429382,81.855957 
	C359.150055,82.834824 360.518311,83.783974 361.886566,84.733139 
	C348.499695,85.471367 334.862976,84.852165 321.783447,87.259972 
	C301.190796,91.050873 283.991119,101.457329 271.909393,119.286865 
	C271.037598,120.573402 268.152618,121.695099 266.806885,121.212250 
	C263.977936,120.197250 259.859619,119.774033 260.121643,115.174400 
	C260.461853,109.201279 261.245422,103.236908 261.261230,97.267242 
	C261.273010,92.817535 260.369476,88.365417 260.148254,83.287720 
	C261.698151,80.398102 262.973358,78.135132 264.248566,75.872169 
z"/>
<path fill="#F8FC1B" opacity="1.000000" stroke="none" 
	d="
M375.507324,225.791351 
	C377.909424,222.354858 380.447327,219.003830 382.677490,215.459152 
	C385.175964,211.488007 387.977600,207.549957 389.535919,203.199417 
	C390.604523,200.216141 391.863739,199.425125 394.686005,199.255783 
	C406.094330,198.571320 407.934052,200.172638 408.662079,211.902893 
	C408.920288,216.063309 408.067169,219.238022 404.354980,222.228531 
	C399.943726,225.782227 396.695374,230.769363 392.890869,235.089325 
	C389.280670,239.188614 385.475861,243.123627 382.003448,247.334381 
	C379.975677,249.793259 378.477539,252.682846 376.652283,255.317078 
	C375.628693,256.794403 374.306061,259.404938 373.323578,259.312897 
	C370.640106,259.061462 367.245880,258.377563 365.612335,256.545837 
	C361.779144,252.247665 360.037964,246.815216 361.223236,240.355896 
	C364.484222,240.175949 367.290405,240.400574 370.059143,240.853897 
	C373.811462,241.468277 375.943451,240.080154 375.944489,236.203705 
	C375.945404,232.732956 375.664093,229.262146 375.507324,225.791351 
z"/>
<path fill="#71FBF7" opacity="1.000000" stroke="none" 
	d="
M162.922791,151.003632 
	C162.140045,154.371780 162.333420,157.923264 158.221725,158.747467 
	C154.139893,159.565689 151.969421,157.002747 150.408997,153.958359 
	C148.313034,149.869080 146.710831,145.527786 144.639297,141.424606 
	C143.286713,138.745529 141.297516,136.391159 139.904007,133.728821 
	C134.072617,122.587944 129.371292,111.146019 131.186935,98.111130 
	C131.593201,95.194450 132.578140,92.808548 136.016418,92.971237 
	C139.184464,93.121140 143.274033,91.298965 144.230988,96.747368 
	C145.022919,101.256172 148.180435,104.324112 150.806808,107.929825 
	C154.191742,112.576950 154.963730,119.128433 156.855774,124.861488 
	C158.164581,128.827271 159.746643,132.730072 160.693024,136.781021 
	C161.752350,141.315536 162.232147,145.985443 162.922791,151.003632 
z"/>
<path fill="#F4F6E8" opacity="1.000000" stroke="none" 
	d="
M260.589569,296.442902 
	C254.918579,287.723206 246.374603,289.659149 238.193588,290.500336 
	C234.777573,290.851532 231.403366,291.609406 227.390030,292.287079 
	C227.390030,289.501038 227.459320,287.392426 227.374695,285.289948 
	C227.227539,281.633942 228.405609,277.793823 224.444275,274.881805 
	C223.324203,274.058472 223.803024,270.829956 223.836594,268.709137 
	C223.951981,261.418091 223.155212,260.741180 216.239761,262.584015 
	C215.792068,262.703308 215.284927,262.599548 214.619263,262.599548 
	C211.539902,256.973633 218.134323,254.092194 218.297180,249.472260 
	C218.467056,244.653275 218.715866,239.837067 219.277512,234.830643 
	C222.984360,241.307022 226.238190,248.003418 232.690720,252.469513 
	C233.915604,253.317322 234.267395,255.344650 235.209518,256.697113 
	C239.237183,262.479187 244.430695,266.433319 251.751480,266.909515 
	C252.036896,266.959839 252.322296,267.010193 252.852173,267.477112 
	C253.470627,272.586304 253.844604,277.278900 254.218582,281.971497 
	C254.576645,282.359192 254.934708,282.746918 255.292770,283.134644 
	C258.453308,279.121155 259.703979,281.170044 261.557526,283.298279 
	C264.510010,286.688446 263.849091,290.244751 262.840332,294.106873 
	C261.914093,294.971069 261.251831,295.707001 260.589569,296.442902 
z"/>
<path fill="#B96269" opacity="1.000000" stroke="none" 
	d="
M71.217316,329.253784 
	C72.027130,327.312653 72.899574,325.710693 74.079628,323.919189 
	C82.558701,335.459869 89.923187,347.868256 99.083504,358.767365 
	C114.273216,376.840363 130.561874,393.994354 146.582809,411.355316 
	C147.870239,412.750397 150.664566,412.754913 151.996918,413.168945 
	C153.380066,415.542114 154.215744,418.381317 156.100494,419.996063 
	C179.363449,439.926697 202.818085,459.633484 226.115326,479.524414 
	C229.683411,482.570801 232.707413,486.254486 235.983063,489.643402 
	C235.572754,490.126343 235.162445,490.609283 234.752136,491.092194 
	C231.366501,488.619171 227.808426,486.348785 224.623871,483.639374 
	C207.131790,468.757172 189.748886,453.746735 172.295212,438.819244 
	C140.091003,411.276154 109.222046,382.427582 83.951126,348.143066 
	C79.510986,342.119232 75.492920,335.784271 71.217316,329.253784 
z"/>
<path fill="#F80664" opacity="1.000000" stroke="none" 
	d="
M256.328156,256.380096 
	C256.016754,257.111511 255.705338,257.842896 254.788147,258.771423 
	C245.550186,262.413116 243.993362,262.237427 240.459503,257.838776 
	C236.219406,252.561066 231.357895,247.692688 227.773529,242.011108 
	C225.549042,238.485092 224.516052,233.828629 224.204483,229.587280 
	C223.925415,225.788559 229.436493,222.077606 232.733292,223.457535 
	C242.322632,227.471344 251.693817,231.892029 253.838287,243.751617 
	C254.601639,247.973145 255.494446,252.171280 256.328156,256.380096 
z"/>
<path fill="#39CC11" opacity="1.000000" stroke="none" 
	d="
M122.411545,138.146698 
	C124.380478,144.977219 126.104813,151.811493 123.901840,158.962967 
	C123.661743,159.742401 123.784378,161.182037 124.296127,161.559189 
	C129.067444,165.075638 128.407791,170.156006 128.041611,175.602188 
	C126.092865,177.468048 124.530823,178.793213 122.580109,180.448105 
	C118.661697,174.578232 115.123199,169.277481 111.584694,163.976715 
	C109.147751,158.228546 106.710800,152.480392 104.496811,146.032562 
	C104.811081,142.213531 104.823410,139.089264 105.016434,135.976181 
	C105.201523,132.990982 105.534088,130.104080 109.340271,129.279388 
	C112.741219,128.542511 115.342285,128.930069 117.321709,132.267365 
	C118.623123,134.461548 120.688362,136.202682 122.411545,138.146698 
z"/>
<path fill="#F89A15" opacity="1.000000" stroke="none" 
	d="
M81.828690,223.087280 
	C80.274651,222.207153 78.247108,221.690659 77.245491,220.386322 
	C71.818985,213.319916 67.662239,205.515381 67.119690,196.484161 
	C66.970177,193.995468 68.667252,189.607803 70.375549,189.124222 
	C75.935341,187.550339 81.883911,187.269501 87.708214,186.818253 
	C88.388649,186.765518 89.388489,188.672607 89.965958,189.810379 
	C93.304527,196.388214 93.209312,203.211639 91.268219,210.150452 
	C90.330833,213.501282 89.463341,216.871674 88.149834,220.687439 
	C85.766533,221.790192 83.797607,222.438721 81.828690,223.087280 
z"/>
<path fill="#9931CF" opacity="1.000000" stroke="none" 
	d="
M288.129608,216.173264 
	C287.416656,217.539429 286.703674,218.905609 285.528503,220.657028 
	C283.765625,222.275238 281.946747,223.275055 281.266388,224.787125 
	C279.575378,228.545471 278.613647,232.628952 276.966095,236.410660 
	C275.198792,240.467255 272.982605,244.328278 270.689850,248.806915 
	C267.379089,244.773117 264.995087,242.027969 262.787659,239.147552 
	C257.300232,231.987030 256.951324,227.210083 261.519897,220.161331 
	C265.651154,213.787262 271.933929,210.053757 278.741852,207.344055 
	C281.990417,206.051025 284.369324,207.505646 285.136475,211.410431 
	C285.473846,213.127777 287.092621,214.593369 288.129608,216.173264 
z"/>
<path fill="#A0F61A" opacity="1.000000" stroke="none" 
	d="
M397.124878,279.674744 
	C400.106995,276.583710 403.753265,273.900085 405.946289,270.325043 
	C412.449982,259.722839 412.973999,259.217163 426.124725,260.900696 
	C426.124725,266.731873 426.204376,272.648529 426.041840,278.558533 
	C426.016449,279.482056 425.075531,280.898102 424.239929,281.196930 
	C419.170166,283.009979 414.008148,284.565002 408.223267,285.865540 
	C402.452484,284.380829 397.485840,290.418274 391.840454,286.254791 
	C393.854553,283.746887 395.489716,281.710815 397.124878,279.674744 
z"/>
<path fill="#D14B4C" opacity="1.000000" stroke="none" 
	d="
M128.378677,46.812065 
	C131.605515,44.865963 135.040756,42.378296 138.878967,41.155090 
	C144.253677,39.442215 149.928543,38.671211 155.480453,36.529400 
	C152.201324,35.925922 148.922180,35.322449 145.346008,34.489838 
	C174.331573,29.355261 202.581146,31.901875 229.315506,45.912365 
	C195.650391,35.350159 162.170471,36.844475 128.378677,46.812065 
z"/>
<path fill="#369BD2" opacity="1.000000" stroke="none" 
	d="
M263.104370,293.978577 
	C263.849091,290.244751 264.510010,286.688446 261.557526,283.298279 
	C259.703979,281.170044 258.453308,279.121155 255.292770,283.134644 
	C254.934708,282.746918 254.576645,282.359192 254.218582,281.971497 
	C253.844604,277.278900 253.470627,272.586304 253.278168,267.563843 
	C255.708969,266.768402 257.958252,266.302795 260.733032,266.240479 
	C261.673615,267.820801 262.088715,268.997833 262.252014,269.460968 
	C270.268463,266.960358 277.956360,264.759674 285.491760,262.123108 
	C288.935822,260.918030 291.186279,258.290070 291.171814,254.213394 
	C291.147827,247.464569 293.518951,241.644318 298.030701,236.591278 
	C299.026276,235.476257 299.846436,233.718460 299.824799,232.270447 
	C299.753326,227.489258 299.259369,222.714371 298.927612,217.937073 
	C299.934296,212.977371 300.817871,207.932083 307.233337,206.347809 
	C306.779877,209.223129 306.090881,212.277512 305.145599,215.250381 
	C304.228333,218.135147 302.104462,220.955338 302.161407,223.770493 
	C302.327057,231.957443 301.040619,239.557022 296.741272,246.644379 
	C295.683563,248.388000 295.214783,250.677200 295.073944,252.756134 
	C294.462097,261.787842 291.411987,265.042297 282.313690,267.037598 
	C274.760559,268.694031 267.322906,270.881897 259.850464,272.895020 
	C258.949921,273.137604 258.151520,273.759399 256.100952,274.840912 
	C263.163788,279.806549 270.462555,284.349945 267.632507,294.574036 
	C265.867523,294.670044 264.485931,294.324310 263.104370,293.978577 
z"/>
<path fill="#884CA1" opacity="1.000000" stroke="none" 
	d="
M288.479614,216.085800 
	C287.092621,214.593369 285.473846,213.127777 285.136475,211.410431 
	C284.369324,207.505646 281.990417,206.051025 278.741852,207.344055 
	C271.933929,210.053757 265.651154,213.787262 261.519897,220.161331 
	C256.951324,227.210083 257.300232,231.987030 262.787659,239.147552 
	C264.995087,242.027969 267.379089,244.773117 270.689850,248.806915 
	C272.982605,244.328278 275.198792,240.467255 276.966095,236.410660 
	C278.613647,232.628952 279.575378,228.545471 281.266388,224.787125 
	C281.946747,223.275055 283.765625,222.275238 285.394989,220.966858 
	C285.587097,222.188446 285.709839,223.582687 285.266541,224.764664 
	C283.792450,228.695099 281.693634,232.436493 280.616608,236.459778 
	C279.090515,242.160400 277.426605,247.644531 272.541046,251.401855 
	C270.731934,252.793198 268.623871,253.795868 267.752106,254.317551 
	C264.273590,249.024521 261.421234,244.684326 258.285461,240.663727 
	C258.002045,240.983353 258.011688,241.026093 258.331848,240.745499 
	C258.101685,239.904984 257.551331,239.345078 256.836609,238.493500 
	C255.750977,236.140152 254.829697,234.078445 253.908447,232.016754 
	C254.382675,230.617340 255.048676,229.251602 255.301285,227.813248 
	C257.678192,214.279419 269.160980,203.661758 282.940643,202.740997 
	C284.620087,202.628769 287.248749,203.867203 287.997437,205.256012 
	C289.759277,208.524353 292.716583,212.135025 288.479614,216.085800 
z"/>
<path fill="#249CE7" opacity="1.000000" stroke="none" 
	d="
M268.128021,316.895172 
	C273.330475,319.458740 276.373566,323.714783 278.201050,329.136932 
	C283.501587,344.863525 303.707031,349.564056 316.252594,338.491211 
	C320.457214,334.780151 325.751373,332.106812 330.914368,329.769409 
	C333.161926,328.751892 336.334137,329.776825 339.529633,330.151917 
	C340.001831,330.598663 340.030853,330.767639 340.059906,330.936646 
	C339.530701,333.470184 339.170135,336.058655 338.373230,338.504974 
	C338.122131,339.275726 336.701294,339.665405 335.405273,339.694092 
	C334.678375,337.125397 334.362061,335.092102 333.747070,331.138794 
	C327.898254,335.623993 323.252350,339.212219 318.576202,342.760559 
	C316.623566,344.242249 314.795532,346.328430 312.580780,346.935455 
	C307.497284,348.328766 302.210968,348.982269 296.928284,349.580505 
	C294.991760,348.256470 293.206909,347.087921 291.255463,346.376129 
	C289.327911,345.673096 286.393005,346.119019 285.363403,344.862122 
	C281.951752,340.697327 277.480804,340.580872 272.871490,340.365417 
	C272.170654,336.530212 271.469788,332.695007 270.583344,327.844208 
	C269.976868,326.851318 268.686279,324.738586 267.612976,321.945618 
	C267.929474,319.808655 268.028748,318.351929 268.128021,316.895172 
z"/>
<path fill="#D63E77" opacity="1.000000" stroke="none" 
	d="
M253.575256,231.962616 
	C254.829697,234.078445 255.750977,236.140152 256.557404,238.681091 
	C256.965607,239.782242 257.488647,240.404160 258.011688,241.026093 
	C258.011688,241.026093 258.002045,240.983353 257.990051,240.965271 
	C257.609009,245.939194 257.239990,250.931198 256.599548,256.151672 
	C255.494446,252.171280 254.601639,247.973145 253.838287,243.751617 
	C251.693817,231.892029 242.322632,227.471344 232.733292,223.457535 
	C229.436493,222.077606 223.925415,225.788559 224.204483,229.587280 
	C224.516052,233.828629 225.549042,238.485092 227.773529,242.011108 
	C231.357895,247.692688 236.219406,252.561066 240.459503,257.838776 
	C243.993362,262.237427 245.550186,262.413116 254.554779,258.962433 
	C253.917877,261.365723 252.908554,263.775085 251.825348,266.546997 
	C244.430695,266.433319 239.237183,262.479187 235.209518,256.697113 
	C234.267395,255.344650 233.915604,253.317322 232.690720,252.469513 
	C226.238190,248.003418 222.984360,241.307022 219.364166,234.311371 
	C219.110779,232.593704 219.118088,231.206329 219.104156,229.553345 
	C219.743088,227.782562 220.362244,226.257782 221.070770,224.775726 
	C223.539429,219.612000 226.790268,218.197266 232.261597,219.555908 
	C240.498627,221.601349 247.423004,225.796387 253.575256,231.962616 
z"/>
<path fill="#2C89C8" opacity="1.000000" stroke="none" 
	d="
M359.984283,309.996979 
	C367.473419,305.966492 366.538544,299.818726 364.654572,293.036743 
	C362.202515,284.209930 359.643433,275.583588 353.429413,268.447144 
	C351.633240,266.384369 350.203247,263.595917 349.655731,260.924835 
	C347.563080,250.715805 339.244720,248.618698 331.199158,247.142563 
	C324.132690,245.846069 319.510803,242.272171 316.072937,236.070312 
	C318.036194,236.498932 320.652557,236.756577 321.836670,238.194046 
	C325.116272,242.175491 329.157898,242.653488 333.837708,242.611710 
	C335.863617,242.593628 338.020599,243.907867 339.917053,244.974274 
	C349.745789,250.501099 354.369263,259.480469 359.325867,269.443604 
	C363.750641,278.337646 366.632080,287.405182 369.293396,296.646210 
	C370.447388,300.653381 369.411957,305.411072 368.780060,309.741669 
	C368.582611,311.094940 366.451477,312.166077 364.528534,313.197632 
	C362.562500,312.018280 361.273376,311.007629 359.984283,309.996979 
z"/>
<path fill="#E89E35" opacity="1.000000" stroke="none" 
	d="
M81.905762,223.456955 
	C83.797607,222.438721 85.766533,221.790192 88.057755,221.093872 
	C91.290947,223.863983 94.518486,226.428314 97.030670,229.565475 
	C100.012817,233.289474 101.777611,238.135391 105.152100,241.364090 
	C110.366791,246.353470 111.587112,251.353653 108.024658,257.598511 
	C103.991653,257.660370 99.127815,253.347992 97.591087,248.381348 
	C97.177368,247.044189 96.639069,245.435272 95.619858,244.645767 
	C88.655266,239.250824 84.545357,232.063629 81.905762,223.456955 
z"/>
<path fill="#556EC5" opacity="1.000000" stroke="none" 
	d="
M217.453369,138.144440 
	C217.339630,136.379105 217.396378,134.400238 217.696609,132.459045 
	C219.199127,122.744431 216.253967,113.963333 212.680725,105.209793 
	C199.536407,110.165474 195.728043,118.509399 199.768463,132.015152 
	C200.427719,134.218811 200.239090,136.676132 200.087494,139.094131 
	C198.201447,136.249344 195.984772,133.478088 195.297745,130.368866 
	C194.235046,125.559303 194.088654,120.524979 193.852966,115.571716 
	C193.798553,114.428268 194.708405,112.976402 195.599792,112.097977 
	C198.703842,109.039047 202.324173,106.450882 205.133972,103.159393 
	C208.962662,98.674339 210.319092,98.918869 213.923904,103.333954 
	C219.904572,110.658981 221.285080,119.231270 221.443207,128.016373 
	C221.502411,131.303696 219.045731,134.636307 217.453369,138.144440 
z"/>
<path fill="#BFF8FC" opacity="1.000000" stroke="none" 
	d="
M298.543671,218.003479 
	C299.259369,222.714371 299.753326,227.489258 299.824799,232.270447 
	C299.846436,233.718460 299.026276,235.476257 298.030701,236.591278 
	C293.518951,241.644318 291.147827,247.464569 291.171814,254.213394 
	C291.186279,258.290070 288.935822,260.918030 285.491760,262.123108 
	C277.956360,264.759674 270.268463,266.960358 262.252014,269.460968 
	C262.088715,268.997833 261.673615,267.820801 261.146606,266.282593 
	C266.144440,264.076843 271.158173,261.872864 276.387421,260.475159 
	C283.535278,258.564575 286.948456,253.746811 288.940460,247.079483 
	C290.350067,242.361603 292.666290,237.917984 294.140656,233.214905 
	C295.160675,229.961136 295.308624,226.443878 296.095215,223.102997 
	C296.505646,221.359894 297.454224,219.743515 298.543671,218.003479 
z"/>
<path fill="#D18E93" opacity="1.000000" stroke="none" 
	d="
M362.280304,84.832764 
	C360.518311,83.783974 359.150055,82.834824 357.398071,81.556267 
	C356.996948,80.822792 356.979553,80.418724 356.962158,80.014648 
	C357.266907,79.917664 357.524170,79.748482 357.833069,79.296249 
	C376.389862,79.828407 411.904175,96.840378 411.821930,104.807816 
	C407.395386,103.578819 402.960388,102.347473 398.525391,101.116127 
	C398.809937,100.762207 399.094513,100.408279 399.379059,100.054352 
	C398.188446,98.449600 397.329224,96.319321 395.753326,95.325569 
	C385.671417,88.968002 373.897461,87.792831 362.280304,84.832764 
z"/>
<path fill="#B0EC48" opacity="1.000000" stroke="none" 
	d="
M396.776093,279.596863 
	C395.489716,281.710815 393.854553,283.746887 391.840454,286.254791 
	C397.485840,290.418274 402.452484,284.380829 407.790283,285.795776 
	C403.538879,287.999664 399.059235,289.915405 394.597534,291.872101 
	C391.860779,293.072327 389.019501,294.112915 386.464996,295.629272 
	C383.583069,297.339935 380.970245,299.503937 377.382294,302.089020 
	C377.865936,296.196960 378.119232,291.768188 378.690918,287.380890 
	C378.794281,286.587372 380.091980,285.679932 381.029663,285.309540 
	C386.129120,283.295593 391.288544,281.433411 396.776093,279.596863 
z"/>
<path fill="#AFF1E8" opacity="1.000000" stroke="none" 
	d="
M155.027451,185.821198 
	C154.613083,180.291733 155.803009,175.897018 159.996460,172.507141 
	C163.933716,169.324356 168.161453,169.344894 171.418915,173.281387 
	C179.568573,183.129883 176.309357,191.750107 168.093033,198.863358 
	C166.805374,199.978149 162.877243,199.404266 161.035126,198.241150 
	C156.873810,195.613663 155.151031,191.206863 155.027451,185.821198 
M156.967834,185.308456 
	C157.469101,189.664352 159.707901,193.280640 163.972321,193.672241 
	C166.233643,193.879898 169.608505,191.661697 171.007141,189.558624 
	C173.986664,185.078400 172.104034,177.591919 167.777878,174.389542 
	C166.826523,173.685333 164.629654,173.220642 163.993195,173.776199 
	C160.697754,176.652771 156.616806,179.188477 156.967834,185.308456 
z"/>
<path fill="#6DC252" opacity="1.000000" stroke="none" 
	d="
M140.996628,200.126373 
	C141.732468,203.455887 143.067001,206.665771 142.457581,209.450211 
	C141.930847,211.857010 139.516068,215.107330 137.365952,215.627106 
	C133.497467,216.562332 128.539673,216.595200 127.007874,211.373749 
	C125.867226,207.485580 124.398460,202.855362 125.554794,199.380585 
	C126.595039,196.254684 136.200485,197.048599 140.996628,200.126373 
M133.685318,213.026047 
	C138.139267,213.798203 140.050720,210.978546 139.670303,207.444626 
	C139.435608,205.264435 137.085709,201.876328 135.368652,201.670242 
	C133.410843,201.435303 130.026321,203.687119 129.200409,205.666885 
	C128.017197,208.503113 128.929611,211.894089 133.685318,213.026047 
z"/>
<path fill="#D14B4C" opacity="1.000000" stroke="none" 
	d="
M264.206451,75.515274 
	C262.973358,78.135132 261.698151,80.398102 260.134521,82.869919 
	C256.528198,74.339325 252.554886,65.971649 245.897400,59.195606 
	C243.519196,56.775032 240.980774,54.511852 239.012283,51.654659 
	C249.924652,56.774433 258.436066,64.467270 264.206451,75.515274 
z"/>
<path fill="#4AA7E1" opacity="1.000000" stroke="none" 
	d="
M268.083069,316.527100 
	C268.028748,318.351929 267.929474,319.808655 267.634949,321.560425 
	C265.754913,319.525421 264.123108,317.154297 262.361725,314.883728 
	C261.555939,313.844971 260.495087,313.004120 259.185852,311.838928 
	C258.690308,310.984100 258.558838,310.363831 258.427338,309.743591 
	C258.427368,309.091278 258.427399,308.438965 258.928101,307.332428 
	C264.371735,304.920685 261.928619,302.005524 260.422729,299.211884 
	C260.453552,298.514221 260.484406,297.816589 260.552429,296.780914 
	C261.251831,295.707001 261.914093,294.971069 262.840332,294.106873 
	C264.485931,294.324310 265.867523,294.670044 267.609558,295.027771 
	C268.357391,295.777252 268.717682,296.530365 269.136322,297.249573 
	C272.509247,303.043884 271.712036,305.129730 264.390869,306.845673 
	C265.646423,310.051727 266.842285,313.105408 268.083069,316.527100 
z"/>
<path fill="#556EC5" opacity="1.000000" stroke="none" 
	d="
M207.137085,194.364563 
	C218.306610,193.850815 220.628357,190.794250 218.358810,179.509125 
	C217.651199,175.990646 217.080170,172.372620 217.114410,168.806564 
	C217.132278,166.945023 218.600983,165.097412 219.753571,163.057953 
	C220.963684,168.911118 221.853119,174.947235 222.700607,180.989258 
	C223.618134,187.530579 221.206802,193.122559 217.353287,198.122253 
	C216.706070,198.961990 214.416565,199.395309 213.403824,198.917847 
	C211.187241,197.872864 209.303085,196.122696 207.137085,194.364563 
z"/>
<path fill="#6DC252" opacity="1.000000" stroke="none" 
	d="
M122.480896,137.792786 
	C120.688362,136.202682 118.623123,134.461548 117.321709,132.267365 
	C115.342285,128.930069 112.741219,128.542511 109.340271,129.279388 
	C105.534088,130.104080 105.201523,132.990982 105.016434,135.976181 
	C104.823410,139.089264 104.811081,142.213531 104.468285,145.653259 
	C102.777138,141.046112 101.115028,136.167160 100.023697,131.163681 
	C99.662949,129.509735 100.364876,127.228958 101.398689,125.846161 
	C101.859093,125.230331 104.364662,126.393433 105.903259,126.269264 
	C107.747887,126.120415 109.551170,125.459251 111.434959,124.114403 
	C118.728645,125.014557 120.106033,131.671265 122.480896,137.792786 
z"/>
<path fill="#BFF8FC" opacity="1.000000" stroke="none" 
	d="
M297.007019,349.936127 
	C302.210968,348.982269 307.497284,348.328766 312.580780,346.935455 
	C314.795532,346.328430 316.623566,344.242249 318.576202,342.760559 
	C323.252350,339.212219 327.898254,335.623993 333.747070,331.138794 
	C334.362061,335.092102 334.678375,337.125397 335.004578,339.574951 
	C329.495026,337.810150 325.142059,339.424591 321.520935,343.933441 
	C315.333771,351.637390 307.155762,353.643219 297.369965,351.584229 
	C296.986664,350.785095 296.996857,350.360626 297.007019,349.936127 
z"/>
<path fill="#FCFBAA" opacity="1.000000" stroke="none" 
	d="
M375.189697,225.865784 
	C375.664093,229.262146 375.945404,232.732956 375.944489,236.203705 
	C375.943451,240.080154 373.811462,241.468277 370.059143,240.853897 
	C367.290405,240.400574 364.484222,240.175949 361.239197,239.901459 
	C360.794678,239.245392 360.504974,238.193817 360.862122,237.881119 
	C365.478455,233.839569 370.186920,229.903183 375.189697,225.865784 
z"/>
<path fill="#4AA7E1" opacity="1.000000" stroke="none" 
	d="
M359.624390,310.049286 
	C361.273376,311.007629 362.562500,312.018280 364.173645,313.220154 
	C361.990356,317.994446 358.948059,321.276520 353.996857,317.833069 
	C352.043610,321.009399 350.424255,323.642731 348.561707,326.632812 
	C347.865936,326.658142 347.413361,326.326721 346.960754,325.995300 
	C347.328339,323.296112 347.325409,320.470642 348.188019,317.940216 
	C348.808746,316.119476 350.296661,314.251862 351.914185,313.197205 
	C354.105530,311.768433 356.790985,311.097565 359.624390,310.049286 
z"/>
<path fill="#369BD2" opacity="1.000000" stroke="none" 
	d="
M346.616974,326.047668 
	C347.413361,326.326721 347.865936,326.658142 348.609924,327.010956 
	C353.450104,329.524902 354.009308,331.672485 350.616364,335.243866 
	C348.643890,337.320099 346.188965,338.937958 344.005310,340.717926 
	C342.864624,337.133057 341.872192,334.014038 340.469818,330.915833 
	C340.030853,330.767639 340.001831,330.598663 339.925415,330.176453 
	C342.009735,328.648804 344.141449,327.374420 346.616974,326.047668 
z"/>
<path fill="#AFF1E8" opacity="1.000000" stroke="none" 
	d="
M296.928284,349.580505 
	C296.996857,350.360626 296.986664,350.785095 296.958496,351.524414 
	C287.752869,350.890625 279.594788,347.665924 272.930817,340.686035 
	C277.480804,340.580872 281.951752,340.697327 285.363403,344.862122 
	C286.393005,346.119019 289.327911,345.673096 291.255463,346.376129 
	C293.206909,347.087921 294.991760,348.256470 296.928284,349.580505 
z"/>
<path fill="#6DC252" opacity="1.000000" stroke="none" 
	d="
M111.606735,164.365326 
	C115.123199,169.277481 118.661697,174.578232 122.580109,180.448105 
	C124.530823,178.793213 126.092865,177.468048 127.913864,175.997620 
	C128.045471,178.273178 127.918129,180.694000 127.796852,182.999466 
	C122.757614,184.509140 119.042542,183.609146 117.078491,178.966019 
	C115.103020,174.295883 113.432770,169.496613 111.606735,164.365326 
z"/>
<path fill="#556EC5" opacity="1.000000" stroke="none" 
	d="
M205.475204,170.733521 
	C205.832001,177.788391 205.897507,185.037048 205.923096,192.773346 
	C204.514191,191.611374 202.267334,190.119675 201.936981,188.283218 
	C200.844849,182.211777 200.891678,176.103546 205.475204,170.733521 
z"/>
<path fill="#B96269" opacity="1.000000" stroke="none" 
	d="
M270.564331,439.138672 
	C271.077789,440.612213 271.185364,442.060883 271.311127,443.754730 
	C274.534668,444.212341 277.462250,444.627930 280.832336,445.110596 
	C272.200439,448.975586 265.750824,447.990082 259.556519,441.236755 
	C263.397461,440.467651 266.777985,439.790771 270.564331,439.138672 
z"/>
<path fill="#D794C5" opacity="1.000000" stroke="none" 
	d="
M369.894470,171.197067 
	C367.992950,173.313034 365.885956,175.122894 363.451691,176.947235 
	C363.338379,171.023346 367.760986,164.837204 373.324768,164.049255 
	C375.358429,163.761276 377.735809,165.900162 379.956360,166.931900 
	C379.777618,167.594696 379.598846,168.257477 379.420105,168.920273 
	C377.382568,168.920273 375.307007,168.684586 373.321136,169.004883 
	C372.042297,169.211166 370.895172,170.234070 369.894470,171.197067 
z"/>
<path fill="#4AA7E1" opacity="1.000000" stroke="none" 
	d="
M316.701904,230.367188 
	C317.922821,225.412399 319.462982,220.332077 321.245697,214.902985 
	C324.761292,222.060181 323.800140,225.435425 316.701904,230.367188 
z"/>
<path fill="#556EC5" opacity="1.000000" stroke="none" 
	d="
M220.395691,156.692612 
	C216.270142,152.522415 217.026413,146.959229 217.076416,141.064484 
	C218.278214,145.808212 219.417557,151.042664 220.395691,156.692612 
z"/>
<path fill="#369BD2" opacity="1.000000" stroke="none" 
	d="
M313.534332,181.350815 
	C314.060425,181.610199 314.440979,182.198364 314.821533,182.786499 
	C313.738190,183.149704 312.654816,183.512924 311.197266,183.817932 
	C311.678314,183.066345 312.533569,182.372955 313.534332,181.350815 
z"/>
<path fill="#B96269" opacity="1.000000" stroke="none" 
	d="
M233.348206,48.750465 
	C234.886887,48.669605 236.412506,49.011681 237.938126,49.353760 
	C237.735870,49.977943 237.533600,50.602131 237.331345,51.226315 
	C235.999283,50.542011 234.667206,49.857708 233.348206,48.750465 
z"/>
<path fill="#AFF1E8" opacity="1.000000" stroke="none" 
	d="
M258.218994,309.824951 
	C258.558838,310.363831 258.690308,310.984100 258.807922,311.877075 
	C258.794067,312.149841 258.699554,312.249847 258.633972,312.272400 
	C258.382507,311.498718 258.196564,310.702484 258.218994,309.824951 
z"/>
<path fill="#556EC5" opacity="1.000000" stroke="none" 
	d="
M200.051941,141.379410 
	C200.390320,141.928116 200.566681,142.659363 200.568665,143.567352 
	C200.226151,143.016708 200.058029,142.289337 200.051941,141.379410 
z"/>
<path fill="#4AA7E1" opacity="1.000000" stroke="none" 
	d="
M315.915894,233.793015 
	C315.661743,233.362564 315.606720,232.819214 315.766296,232.160858 
	C316.025635,232.590591 316.070343,233.135361 315.915894,233.793015 
z"/>
<path fill="#369BD2" opacity="1.000000" stroke="none" 
	d="
M308.171509,198.289383 
	C308.390259,198.683868 308.434906,199.191498 308.272186,199.789673 
	C308.042358,199.387650 308.019867,198.895096 308.171509,198.289383 
z"/>
<path fill="#369BD2" opacity="1.000000" stroke="none" 
	d="
M309.131500,192.350296 
	C309.326508,192.733948 309.322540,193.289978 309.132629,193.924728 
	C308.941956,193.509857 308.937256,193.016266 309.131500,192.350296 
z"/>
<path fill="#369BD2" opacity="1.000000" stroke="none" 
	d="
M310.130951,186.351532 
	C310.330414,186.731705 310.332306,187.285934 310.150513,187.921585 
	C309.955688,187.510529 309.944519,187.018051 310.130951,186.351532 
z"/>
<path fill="#FCFCEE" opacity="1.000000" stroke="none" 
	d="
M184.373520,323.974487 
	C179.638092,320.856995 175.184387,317.961761 170.916077,314.815033 
	C164.109726,309.797150 160.643951,297.552002 163.480148,289.138458 
	C164.011047,287.563568 164.652252,286.023346 165.128311,284.432922 
	C167.367828,276.951324 167.354446,277.015533 175.444580,276.918854 
	C179.644302,276.868713 183.495911,276.946716 187.667679,274.323639 
	C193.121475,270.894501 199.863434,269.514099 206.634338,267.039215 
	C206.494186,268.894104 206.687042,270.257812 206.260437,271.387634 
	C201.551956,283.857880 201.957687,297.184631 199.687393,310.058258 
	C199.240479,312.592468 199.634323,315.621063 195.481644,315.398071 
	C194.728531,315.357635 193.448090,316.632629 193.178986,317.530518 
	C191.897842,321.805298 188.812347,323.527252 184.373520,323.974487 
z"/>
<path fill="#AFF1E8" opacity="1.000000" stroke="none" 
	d="
M260.111847,299.402527 
	C261.928619,302.005524 264.371735,304.920685 259.100281,306.872681 
	C259.114868,304.442474 259.457947,302.017792 260.111847,299.402527 
z"/>
<path fill="#B96269" opacity="1.000000" stroke="none" 
	d="
M356.499298,80.012199 
	C356.979553,80.418724 356.996948,80.822792 357.045654,81.526566 
	C352.157959,81.594559 347.238953,81.362862 342.319916,81.131165 
	C342.317596,80.757362 342.315277,80.383553 342.312958,80.009750 
	C346.887451,80.009750 351.461945,80.009750 356.499298,80.012199 
z"/>
<path fill="#FFFEFD" opacity="1.000000" stroke="none" 
	d="
M258.331848,240.745483 
	C257.488647,240.404160 256.965607,239.782242 256.721771,238.972748 
	C257.551331,239.345078 258.101685,239.904984 258.331848,240.745483 
z"/>
<path fill="#71FBF7" opacity="1.000000" stroke="none" 
	d="
M156.964462,184.904312 
	C156.616806,179.188477 160.697754,176.652771 163.993195,173.776199 
	C164.629654,173.220642 166.826523,173.685333 167.777878,174.389542 
	C172.104034,177.591919 173.986664,185.078400 171.007141,189.558624 
	C169.608505,191.661697 166.233643,193.879898 163.972321,193.672241 
	C159.707901,193.280640 157.469101,189.664352 156.964462,184.904312 
z"/>
<path fill="#39CC11" opacity="1.000000" stroke="none" 
	d="
M133.267975,213.012039 
	C128.929611,211.894089 128.017197,208.503113 129.200409,205.666885 
	C130.026321,203.687119 133.410843,201.435303 135.368652,201.670242 
	C137.085709,201.876328 139.435608,205.264435 139.670303,207.444626 
	C140.050720,210.978546 138.139267,213.798203 133.267975,213.012039 
z"/>
</svg>